<svg width="40" height="40" viewBox="0 0 40 40" fill="none" xmlns="http://www.w3.org/2000/svg">
<path d="M7.42863 17.1431H22.0004V19.5717H7.42863V17.1431ZM5 11.0715H17.1431V13.5002H5V11.0715Z" fill="#B5B5C3"/>
<path d="M38.9016 17.879L35.2587 9.37881C35.1652 9.16033 35.0096 8.97412 34.8112 8.8433C34.6128 8.71248 34.3804 8.64281 34.1427 8.64294H30.4998V6.21431C30.4998 5.89226 30.3719 5.58339 30.1441 5.35566C29.9164 5.12794 29.6075 5 29.2855 5H9.85647V7.42863H28.0712V22.6755C27.5178 22.9968 27.0336 23.4245 26.6464 23.9339C26.2591 24.4432 25.9766 25.0242 25.815 25.6433H18.1842C17.8887 24.4986 17.1858 23.5011 16.2073 22.8375C15.2289 22.174 14.042 21.8901 12.8692 22.0391C11.6964 22.1881 10.6182 22.7597 9.83665 23.6467C9.05513 24.5338 8.62396 25.6754 8.62396 26.8576C8.62396 28.0399 9.05513 29.1815 9.83665 30.0686C10.6182 30.9556 11.6964 31.5272 12.8692 31.6762C14.042 31.8251 15.2289 31.5413 16.2073 30.8778C17.1858 30.2142 17.8887 29.2166 18.1842 28.072H25.815C26.0791 29.1141 26.6832 30.0385 27.5317 30.6987C28.3802 31.359 29.4247 31.7175 30.4998 31.7175C31.5749 31.7175 32.6194 31.359 33.4679 30.6987C34.3163 30.0385 34.9205 29.1141 35.1846 28.072H37.7857C38.1077 28.072 38.4166 27.944 38.6443 27.7163C38.8721 27.4886 39 27.1797 39 26.8576V18.3574C39.0001 18.1929 38.9666 18.0302 38.9016 17.879ZM13.4994 29.2863C13.0191 29.2863 12.5495 29.1438 12.1501 28.877C11.7508 28.6101 11.4395 28.2308 11.2557 27.787C11.0718 27.3433 11.0237 26.8549 11.1174 26.3838C11.2112 25.9127 11.4425 25.48 11.7821 25.1403C12.1218 24.8007 12.5545 24.5694 13.0256 24.4757C13.4967 24.382 13.985 24.4301 14.4288 24.6139C14.8726 24.7977 15.2519 25.109 15.5187 25.5084C15.7856 25.9078 15.928 26.3773 15.928 26.8576C15.9274 27.5016 15.6713 28.1189 15.216 28.5742C14.7607 29.0295 14.1433 29.2856 13.4994 29.2863ZM30.4998 11.0716H33.3413L35.9448 17.1431H30.4998V11.0716ZM30.4998 29.2863C30.0195 29.2863 29.5499 29.1438 29.1505 28.877C28.7511 28.6101 28.4399 28.2308 28.256 27.787C28.0722 27.3433 28.0241 26.8549 28.1178 26.3838C28.2115 25.9127 28.4429 25.48 28.7825 25.1403C29.1222 24.8007 29.5549 24.5694 30.026 24.4757C30.4971 24.382 30.9854 24.4301 31.4292 24.6139C31.873 24.7977 32.2523 25.109 32.5191 25.5084C32.786 25.9078 32.9284 26.3773 32.9284 26.8576C32.9278 27.5016 32.6717 28.1189 32.2164 28.5742C31.7611 29.0295 31.1437 29.2856 30.4998 29.2863ZM36.5714 25.6433H35.1846C34.9171 24.6032 34.3121 23.6812 33.4642 23.0219C32.6164 22.3627 31.5738 22.0034 30.4998 22.0004V19.5718H36.5714V25.6433Z" fill="#B5B5C3"/>
</svg>
