<svg width="40" height="40" viewBox="0 0 40 40" fill="none" xmlns="http://www.w3.org/2000/svg">
<g clip-path="url(#clip0_37_117)">
<path d="M13.1183 18.4815C14.9437 18.4815 16.6944 17.7713 17.9851 16.5072C19.2759 15.243 20.0011 13.5285 20.0011 11.7407C20.0011 9.95298 19.2759 8.23845 17.9851 6.97432C16.6944 5.71018 14.9437 5 13.1183 5C11.2929 5 9.54222 5.71018 8.25146 6.97432C6.96069 8.23845 6.23554 9.95298 6.23554 11.7407C6.23554 13.5285 6.96069 15.243 8.25146 16.5072C9.54222 17.7713 11.2929 18.4815 13.1183 18.4815ZM25.1621 29.1526C26.2845 29.6027 27.7119 29.8889 29.5289 29.8889C38 29.8889 38 23.6667 38 23.6667C38 22.8419 37.6656 22.0509 37.0703 21.4675C36.475 20.8841 35.6676 20.5561 34.8255 20.5556H25.0244C25.8567 21.5428 26.3565 22.8059 26.3565 24.1852V24.9236C26.3522 25.0982 26.3401 25.2726 26.3205 25.4462C26.1776 26.7421 25.7852 27.9998 25.1642 29.1526H25.1621ZM34.8255 13.2963C34.8255 14.6715 34.2677 15.9904 33.2748 16.9628C32.2819 17.9352 30.9352 18.4815 29.531 18.4815C28.1269 18.4815 26.7802 17.9352 25.7873 16.9628C24.7944 15.9904 24.2366 14.6715 24.2366 13.2963C24.2366 11.9211 24.7944 10.6022 25.7873 9.62982C26.7802 8.65741 28.1269 8.11111 29.531 8.11111C30.9352 8.11111 32.2819 8.65741 33.2748 9.62982C34.2677 10.6022 34.8255 11.9211 34.8255 13.2963ZM2 24.7037C2 23.6035 2.44624 22.5484 3.24056 21.7705C4.03488 20.9926 5.11221 20.5556 6.23554 20.5556H20.0011C21.1244 20.5556 22.2017 20.9926 22.996 21.7705C23.7904 22.5484 24.2366 23.6035 24.2366 24.7037C24.2366 24.7037 24.2366 33 13.1183 33C2 33 2 24.7037 2 24.7037ZM26.3544 24.9236L26.348 25.0563L26.3523 24.9236H26.3544Z" fill="#B5B5C3"/>
</g>
<defs>
<clipPath id="clip0_37_117">
<rect width="40" height="40" fill="white"/>
</clipPath>
</defs>
</svg>
