<svg width="40" height="40" viewBox="0 0 40 40" fill="none" xmlns="http://www.w3.org/2000/svg">
<g clip-path="url(#clip0_37_114)">
<path d="M19.5 5C18.8815 5 18.2691 5.12063 17.6977 5.35502C17.1263 5.5894 16.6072 5.93293 16.1698 6.36601C15.7325 6.79909 15.3856 7.31323 15.1489 7.87908C14.9122 8.44492 14.7904 9.05139 14.7904 9.66386C14.7904 10.2763 14.9122 10.8828 15.1489 11.4486C15.3856 12.0145 15.7325 12.5286 16.1698 12.9617C16.6072 13.3948 17.1263 13.7383 17.6977 13.9727C18.2691 14.2071 18.8815 14.3277 19.5 14.3277C20.7491 14.3277 21.947 13.8364 22.8302 12.9617C23.7134 12.0871 24.2096 10.9008 24.2096 9.66386C24.2096 8.42693 23.7134 7.24066 22.8302 6.36601C21.947 5.49137 20.7491 5 19.5 5ZM30.1071 7.3296C29.1694 7.3296 28.2701 7.69849 27.607 8.35513C26.9439 9.01177 26.5714 9.90236 26.5714 10.831C26.5714 11.7596 26.9439 12.6502 27.607 13.3069C28.2701 13.9635 29.1694 14.3324 30.1071 14.3324C31.0449 14.3324 31.9442 13.9635 32.6073 13.3069C33.2703 12.6502 33.6429 11.7596 33.6429 10.831C33.6429 9.90236 33.2703 9.01177 32.6073 8.35513C31.9442 7.69849 31.0449 7.3296 30.1071 7.3296ZM8.89286 7.3296C7.95513 7.3296 7.05581 7.69849 6.39273 8.35513C5.72966 9.01177 5.35714 9.90236 5.35714 10.831C5.35714 11.7596 5.72966 12.6502 6.39273 13.3069C7.05581 13.9635 7.95513 14.3324 8.89286 14.3324C9.83059 14.3324 10.7299 13.9635 11.393 13.3069C12.0561 12.6502 12.4286 11.7596 12.4286 10.831C12.4286 9.90236 12.0561 9.01177 11.393 8.35513C10.7299 7.69849 9.83059 7.3296 8.89286 7.3296ZM12.4286 18.9846C12.4329 18.3683 12.6832 17.7788 13.1248 17.3446C13.5663 16.9103 14.1634 16.6666 14.7857 16.6667H24.2143C24.8394 16.6667 25.439 16.9126 25.881 17.3503C26.3231 17.7881 26.5714 18.3818 26.5714 19.0009V26.0037C26.5713 26.7384 26.4552 27.4685 26.2273 28.1676C25.7054 29.7518 24.6302 31.1 23.1949 31.9699C21.7595 32.8397 20.0581 33.1744 18.396 32.9138C16.7339 32.6531 15.2201 31.8143 14.1264 30.5478C13.0327 29.2813 12.4307 27.6702 12.4286 26.0037V18.9846ZM10.0714 19.0009C10.0714 18.1489 10.3001 17.3529 10.7031 16.6667H5.35714C4.73199 16.6667 4.13244 16.9126 3.69039 17.3503C3.24834 17.7881 3 18.3818 3 19.0009V24.8366C2.99968 25.792 3.23625 26.7329 3.68893 27.5766C4.14161 28.4204 4.79656 29.1411 5.59626 29.6756C6.39595 30.2101 7.31594 30.542 8.27542 30.6421C9.2349 30.7422 10.2045 30.6075 11.0991 30.2497C10.4207 28.9346 10.0684 27.4782 10.0714 26.0014V19.0009ZM28.9286 19.0009V26.0037C28.9286 27.5327 28.5585 28.9752 27.9009 30.2497C28.7955 30.6075 29.7651 30.7422 30.7246 30.6421C31.6841 30.542 32.604 30.2101 33.4037 29.6756C34.2034 29.1411 34.8584 28.4204 35.3111 27.5766C35.7638 26.7329 36.0003 25.792 36 24.8366V19.0009C36 18.3818 35.7517 17.7881 35.3096 17.3503C34.8676 16.9126 34.268 16.6667 33.6429 16.6667H28.2969C28.6976 17.3529 28.9286 18.1489 28.9286 19.0009Z" fill="#B5B5C3"/>
</g>
<defs>
<clipPath id="clip0_37_114">
<rect width="40" height="40" fill="white"/>
</clipPath>
</defs>
</svg>
